<?xml version="1.0" encoding="UTF-8" standalone="no"?>
<!-- Generator: Adobe Illustrator 22.0.1, SVG Export Plug-In . SVG Version: 6.00 Build 0)  -->

<svg
   xmlns:dc="http://purl.org/dc/elements/1.1/"
   xmlns:cc="http://creativecommons.org/ns#"
   xmlns:rdf="http://www.w3.org/1999/02/22-rdf-syntax-ns#"
   xmlns:svg="http://www.w3.org/2000/svg"
   xmlns="http://www.w3.org/2000/svg"
   xmlns:sodipodi="http://sodipodi.sourceforge.net/DTD/sodipodi-0.dtd"
   xmlns:inkscape="http://www.inkscape.org/namespaces/inkscape"
   version="1.1"
   id="Layer_1"
   x="0px"
   y="0px"
   viewBox="0 0 500 400"
   xml:space="preserve"
   sodipodi:docname="404.svg"
   inkscape:version="0.92.2 5c3e80d, 2017-08-06"
   width="500"
   height="400"><metadata
     id="metadata7133"><rdf:RDF><cc:Work
         rdf:about=""><dc:format>image/svg+xml</dc:format><dc:type
           rdf:resource="http://purl.org/dc/dcmitype/StillImage" /><dc:title></dc:title></cc:Work></rdf:RDF></metadata><defs
     id="defs7131" /><sodipodi:namedview
     pagecolor="#ffffff"
     bordercolor="#666666"
     borderopacity="1"
     objecttolerance="10"
     gridtolerance="10"
     guidetolerance="10"
     inkscape:pageopacity="0"
     inkscape:pageshadow="2"
     inkscape:window-width="1440"
     inkscape:window-height="789"
     id="namedview7129"
     showgrid="false"
     showguides="false"
     inkscape:lockguides="true"
     inkscape:zoom="0.33249999"
     inkscape:cx="319.34115"
     inkscape:cy="210.17792"
     inkscape:window-x="0"
     inkscape:window-y="1"
     inkscape:window-maximized="1"
     inkscape:current-layer="Layer_1"><inkscape:grid
       type="xygrid"
       id="grid1268" /></sodipodi:namedview><style
     type="text/css"
     id="style6251">
	.st0{fill:#3D4DAC;}
	.st1{fill:url(#SVGID_1_);}
	.st2{fill:url(#SVGID_2_);}
	.st3{fill:url(#SVGID_3_);}
	.st4{fill:url(#SVGID_4_);}
	.st5{fill:url(#SVGID_5_);}
	.st6{fill:url(#SVGID_6_);}
	.st7{fill:url(#SVGID_7_);}
	.st8{fill:url(#SVGID_8_);}
	.st9{fill:url(#SVGID_9_);}
	.st10{fill:url(#SVGID_10_);}
	.st11{fill:url(#SVGID_11_);}
	.st12{fill:url(#SVGID_12_);}
	.st13{fill:url(#SVGID_13_);}
	.st14{fill:url(#SVGID_14_);}
	.st15{fill:url(#SVGID_15_);}
	.st16{fill:url(#SVGID_16_);}
	.st17{fill:url(#SVGID_17_);}
	.st18{fill:url(#SVGID_18_);}
	.st19{fill:url(#SVGID_19_);}
	.st20{fill:url(#SVGID_20_);}
	.st21{fill:url(#SVGID_21_);}
	.st22{fill:url(#SVGID_22_);}
	.st23{fill:url(#SVGID_23_);}
	.st24{fill:url(#SVGID_24_);}
	.st25{fill:url(#SVGID_25_);}
	.st26{fill:url(#SVGID_26_);}
	.st27{fill:url(#SVGID_27_);}
	.st28{fill:url(#SVGID_28_);}
	.st29{fill:url(#SVGID_29_);}
	.st30{fill:url(#SVGID_30_);}
	.st31{fill:url(#SVGID_31_);}
	.st32{fill:url(#SVGID_32_);}
	.st33{fill:url(#SVGID_33_);}
	.st34{fill:url(#SVGID_34_);}
	.st35{fill:url(#SVGID_35_);}
	.st36{fill:url(#SVGID_36_);}
	.st37{fill:#D7591E;}
	.st38{fill:#444444;}
	.st39{font-family:'Circular-Black';}
	.st40{font-size:48.0499px;}
	.st41{fill:#282828;}
	.st42{font-family:'Helvetica-Light';}
	.st43{font-size:19.5199px;}
	.st44{font-size:20.2043px;}
	.st45{font-size:19.1566px;}
	.st46{fill:url(#SVGID_37_);}
	.st47{fill:#FFFFFF;}
	.st48{fill:url(#SVGID_38_);}
	.st49{fill:url(#SVGID_39_);}
	.st50{fill:url(#SVGID_40_);}
	.st51{fill:url(#SVGID_41_);}
	.st52{fill:url(#SVGID_42_);}
	.st53{fill:url(#SVGID_43_);}
	.st54{fill:url(#SVGID_44_);}
	.st55{fill:url(#SVGID_45_);}
	.st56{fill:url(#SVGID_46_);}
	.st57{fill:url(#SVGID_47_);}
	.st58{fill:url(#SVGID_48_);}
	.st59{fill:url(#SVGID_49_);}
	.st60{fill:url(#SVGID_50_);}
	.st61{fill:#3A00C9;}
	.st62{fill:url(#SVGID_51_);}
</style><g
     id="g6293"
     style="fill:#808080"
     transform="translate(-11.807295,-267.55778)"><path
       class="st0"
       d="m 356.3,325.5 c 0,1.4 -1.1,2.5 -2.4,2.5 -1.3,0 -2.4,-1.1 -2.4,-2.5 0,-1.4 1.1,-2.5 2.4,-2.5 1.4,0 2.4,1.1 2.4,2.5 z"
       id="path6253"
       style="fill:#808080"
       inkscape:connector-curvature="0" /><path
       class="st0"
       d="m 416.1,418.1 c 0,1.4 -1.1,2.5 -2.4,2.5 -1.3,0 -2.4,-1.1 -2.4,-2.5 0,-1.4 1.1,-2.5 2.4,-2.5 1.3,-0.1 2.4,1.1 2.4,2.5 z"
       id="path6255"
       style="fill:#808080"
       inkscape:connector-curvature="0" /><path
       class="st0"
       d="m 376.6,490.4 c 0,1.4 -1.1,2.5 -2.4,2.5 -1.3,0 -2.4,-1.1 -2.4,-2.5 0,-1.4 1.1,-2.5 2.4,-2.5 1.3,0 2.4,1.1 2.4,2.5 z"
       id="path6257"
       style="fill:#808080"
       inkscape:connector-curvature="0" /><path
       class="st0"
       d="m 381.8,486 c 0,1.1 -0.8,1.9 -1.9,1.9 -1,0 -1.9,-0.9 -1.9,-1.9 0,-1 0.8,-1.9 1.9,-1.9 1.1,0 1.9,0.9 1.9,1.9 z"
       id="path6259"
       style="fill:#808080"
       inkscape:connector-curvature="0" /><path
       class="st0"
       d="m 473,402.6 c 0,1.1 -0.8,1.9 -1.9,1.9 -1,0 -1.9,-0.9 -1.9,-1.9 0,-1 0.8,-1.9 1.9,-1.9 1.1,-0.1 1.9,0.8 1.9,1.9 z"
       id="path6261"
       style="fill:#808080"
       inkscape:connector-curvature="0" /><path
       class="st0"
       d="m 350.3,419.4 c 0,1.1 -0.8,1.9 -1.9,1.9 -1,0 -1.9,-0.9 -1.9,-1.9 0,-1.1 0.8,-1.9 1.9,-1.9 1,0 1.9,0.8 1.9,1.9 z"
       id="path6263"
       style="fill:#808080"
       inkscape:connector-curvature="0" /><path
       class="st0"
       d="m 263.2,444.4 c 0,1.1 -0.8,1.9 -1.9,1.9 -1,0 -1.9,-0.9 -1.9,-1.9 0,-1 0.8,-1.9 1.9,-1.9 1,0 1.9,0.9 1.9,1.9 z"
       id="path6265"
       style="fill:#808080"
       inkscape:connector-curvature="0" /><path
       class="st0"
       d="m 353.4,544.7 c 0,1.1 -0.8,1.9 -1.9,1.9 -1,0 -1.9,-0.9 -1.9,-1.9 0,-1.1 0.8,-1.9 1.9,-1.9 1,0 1.9,0.8 1.9,1.9 z"
       id="path6267"
       style="fill:#808080"
       inkscape:connector-curvature="0" /><path
       class="st0"
       d="m 297.9,376.4 c 0,1.1 -0.8,1.9 -1.9,1.9 -1,0 -1.9,-0.9 -1.9,-1.9 0,-1 0.8,-1.9 1.9,-1.9 1,0 1.9,0.9 1.9,1.9 z"
       id="path6269"
       style="fill:#808080"
       inkscape:connector-curvature="0" /><path
       class="st0"
       d="m 268.6,558.9 c 0,1.1 -0.8,1.9 -1.9,1.9 -1,0 -1.9,-0.9 -1.9,-1.9 0,-1 0.8,-1.9 1.9,-1.9 1.1,-0.1 1.9,0.8 1.9,1.9 z"
       id="path6271"
       style="fill:#808080"
       inkscape:connector-curvature="0" /><path
       class="st0"
       d="m 154.8,380.5 c 0,1.4 -1.1,2.5 -2.4,2.5 -1.3,0 -2.4,-1.1 -2.4,-2.5 0,-1.4 1.1,-2.5 2.4,-2.5 1.3,0 2.4,1.1 2.4,2.5 z"
       id="path6273"
       style="fill:#808080"
       inkscape:connector-curvature="0" /><path
       class="st0"
       d="m 214.5,473.1 c 0,1.4 -1.1,2.5 -2.4,2.5 -1.3,0 -2.4,-1.1 -2.4,-2.5 0,-1.4 1.1,-2.5 2.4,-2.5 1.4,-0.1 2.4,1.1 2.4,2.5 z"
       id="path6275"
       style="fill:#808080"
       inkscape:connector-curvature="0" /><path
       class="st0"
       d="m 175.1,545.4 c 0,1.4 -1.1,2.5 -2.4,2.5 -1.3,0 -2.4,-1.1 -2.4,-2.5 0,-1.4 1.1,-2.5 2.4,-2.5 1.3,0 2.4,1.1 2.4,2.5 z"
       id="path6277"
       style="fill:#808080"
       inkscape:connector-curvature="0" /><path
       class="st0"
       d="m 180.3,541 c 0,1.1 -0.8,1.9 -1.9,1.9 -1,0 -1.9,-0.9 -1.9,-1.9 0,-1.1 0.8,-1.9 1.9,-1.9 1.1,0 1.9,0.9 1.9,1.9 z"
       id="path6279"
       style="fill:#808080"
       inkscape:connector-curvature="0" /><path
       class="st0"
       d="m 271.5,457.6 c 0,1.1 -0.8,1.9 -1.9,1.9 -1,0 -1.9,-0.9 -1.9,-1.9 0,-1.1 0.8,-1.9 1.9,-1.9 1.1,-0.1 1.9,0.8 1.9,1.9 z"
       id="path6281"
       style="fill:#808080"
       inkscape:connector-curvature="0" /><path
       class="st0"
       d="m 148.7,474.4 c 0,1.1 -0.8,1.9 -1.9,1.9 -1,0 -1.9,-0.9 -1.9,-1.9 0,-1.1 0.8,-1.9 1.9,-1.9 1.1,0 1.9,0.8 1.9,1.9 z"
       id="path6283"
       style="fill:#808080"
       inkscape:connector-curvature="0" /><path
       class="st0"
       d="m 61.6,499.4 c 0,1.1 -0.8,1.9 -1.9,1.9 -1,0 -1.9,-0.9 -1.9,-1.9 0,-1 0.8,-1.9 1.9,-1.9 1.1,0 1.9,0.9 1.9,1.9 z"
       id="path6285"
       style="fill:#808080"
       inkscape:connector-curvature="0" /><path
       class="st0"
       d="m 151.8,599.7 c 0,1.1 -0.8,1.9 -1.9,1.9 -1,0 -1.9,-0.9 -1.9,-1.9 0,-1.1 0.8,-1.9 1.9,-1.9 1.1,0 1.9,0.8 1.9,1.9 z"
       id="path6287"
       style="fill:#808080"
       inkscape:connector-curvature="0" /><path
       class="st0"
       d="m 96.3,431.4 c 0,1.1 -0.8,1.9 -1.9,1.9 -1,0 -1.9,-0.9 -1.9,-1.9 0,-1.1 0.8,-1.9 1.9,-1.9 1.1,0 1.9,0.9 1.9,1.9 z"
       id="path6289"
       style="fill:#808080"
       inkscape:connector-curvature="0" /><path
       class="st0"
       d="m 67.1,613.9 c 0,1.1 -0.8,1.9 -1.9,1.9 -1,0 -1.9,-0.9 -1.9,-1.9 0,-1 0.8,-1.9 1.9,-1.9 1,-0.1 1.9,0.8 1.9,1.9 z"
       id="path6291"
       style="fill:#808080"
       inkscape:connector-curvature="0" /></g><g
     id="g6817"
     transform="translate(-11.807295,-267.55778)"><g
       id="g6813"><g
         id="g6805"><linearGradient
           id="SVGID_1_"
           gradientUnits="userSpaceOnUse"
           x1="180.2814"
           y1="491.22101"
           x2="341.61981"
           y2="491.22101"><stop
             offset="0"
             style="stop-color:#EF0081"
             id="stop6337" /><stop
             offset="0.138"
             style="stop-color:#F0117A"
             id="stop6339" /><stop
             offset="0.4108"
             style="stop-color:#F23D66"
             id="stop6341" /><stop
             offset="0.7889"
             style="stop-color:#F58348"
             id="stop6343" /><stop
             offset="1"
             style="stop-color:#F7AD35"
             id="stop6345" /></linearGradient><path
           class="st1"
           d="m 192.1,533.2 c -23.2,-38 -11.2,-87.7 26.8,-110.9 38,-23.2 87.7,-11.2 110.9,26.9 23.2,38 11.2,87.7 -26.8,110.9 -38.1,23.2 -87.7,11.2 -110.9,-26.9 z"
           id="path6348"
           style="fill:#e6e6e6"
           inkscape:connector-curvature="0" /><linearGradient
           id="SVGID_2_"
           gradientUnits="userSpaceOnUse"
           x1="262.12891"
           y1="572.47479"
           x2="271.48831"
           y2="572.47479"><stop
             offset="0"
             style="stop-color:#EF0081"
             id="stop6350" /><stop
             offset="0.138"
             style="stop-color:#F0117A"
             id="stop6352" /><stop
             offset="0.4108"
             style="stop-color:#F23D66"
             id="stop6354" /><stop
             offset="0.7889"
             style="stop-color:#F58348"
             id="stop6356" /><stop
             offset="1"
             style="stop-color:#F7AD35"
             id="stop6358" /></linearGradient><path
           class="st2"
           d="m 262.8,574.9 c -1.3,-2.2 -0.6,-5.1 1.6,-6.4 2.2,-1.3 5.1,-0.6 6.4,1.6 1.3,2.2 0.6,5.1 -1.6,6.4 -2.2,1.3 -5,0.6 -6.4,-1.6 z"
           id="path6361"
           style="fill:#b3b3b3"
           inkscape:connector-curvature="0" /><linearGradient
           id="SVGID_3_"
           gradientUnits="userSpaceOnUse"
           x1="335.1337"
           y1="516.20319"
           x2="341.38641"
           y2="516.20319"><stop
             offset="0"
             style="stop-color:#EF0081"
             id="stop6363" /><stop
             offset="0.138"
             style="stop-color:#F0117A"
             id="stop6365" /><stop
             offset="0.4108"
             style="stop-color:#F23D66"
             id="stop6367" /><stop
             offset="0.7889"
             style="stop-color:#F58348"
             id="stop6369" /><stop
             offset="1"
             style="stop-color:#F7AD35"
             id="stop6371" /></linearGradient><path
           class="st3"
           d="m 335.6,517.8 c -0.9,-1.5 -0.4,-3.4 1,-4.3 1.5,-0.9 3.4,-0.4 4.3,1 0.9,1.5 0.4,3.4 -1,4.3 -1.5,1 -3.4,0.5 -4.3,-1 z"
           id="path6374"
           style="fill:#b3b3b3"
           inkscape:connector-curvature="0" /><linearGradient
           id="SVGID_4_"
           gradientUnits="userSpaceOnUse"
           x1="332.1987"
           y1="464.8678"
           x2="339.8114"
           y2="464.8678"><stop
             offset="0"
             style="stop-color:#EF0081"
             id="stop6376" /><stop
             offset="0.138"
             style="stop-color:#F0117A"
             id="stop6378" /><stop
             offset="0.4108"
             style="stop-color:#F23D66"
             id="stop6380" /><stop
             offset="0.7889"
             style="stop-color:#F58348"
             id="stop6382" /><stop
             offset="1"
             style="stop-color:#F7AD35"
             id="stop6384" /></linearGradient><path
           class="st4"
           d="m 332.8,466.8 c -1.1,-1.8 -0.6,-4.2 1.2,-5.3 1.8,-1.1 4.1,-0.5 5.2,1.4 1.1,1.8 0.6,4.2 -1.2,5.3 -1.7,1.1 -4.1,0.5 -5.2,-1.4 z"
           id="path6387"
           style="fill:#b3b3b3"
           inkscape:connector-curvature="0" /><linearGradient
           id="SVGID_5_"
           gradientUnits="userSpaceOnUse"
           x1="303.02991"
           y1="425.5415"
           x2="309.76071"
           y2="425.5415"><stop
             offset="0"
             style="stop-color:#EF0081"
             id="stop6389" /><stop
             offset="0.138"
             style="stop-color:#F0117A"
             id="stop6391" /><stop
             offset="0.4108"
             style="stop-color:#F23D66"
             id="stop6393" /><stop
             offset="0.7889"
             style="stop-color:#F58348"
             id="stop6395" /><stop
             offset="1"
             style="stop-color:#F7AD35"
             id="stop6397" /></linearGradient><path
           class="st5"
           d="m 303.5,427.3 c -1,-1.6 -0.5,-3.7 1.1,-4.6 1.6,-1 3.7,-0.5 4.6,1.1 1,1.6 0.5,3.7 -1.1,4.6 -1.5,1 -3.6,0.5 -4.6,-1.1 z"
           id="path6400"
           style="fill:#b3b3b3"
           inkscape:connector-curvature="0" /><linearGradient
           id="SVGID_6_"
           gradientUnits="userSpaceOnUse"
           x1="211.8194"
           y1="557.4491"
           x2="218.55051"
           y2="557.4491"><stop
             offset="0"
             style="stop-color:#EF0081"
             id="stop6402" /><stop
             offset="0.138"
             style="stop-color:#F0117A"
             id="stop6404" /><stop
             offset="0.4108"
             style="stop-color:#F23D66"
             id="stop6406" /><stop
             offset="0.7889"
             style="stop-color:#F58348"
             id="stop6408" /><stop
             offset="1"
             style="stop-color:#F7AD35"
             id="stop6410" /></linearGradient><path
           class="st6"
           d="m 212.3,559.2 c -1,-1.6 -0.5,-3.7 1.1,-4.6 1.6,-1 3.7,-0.5 4.6,1.1 1,1.6 0.5,3.7 -1.1,4.6 -1.5,1 -3.6,0.5 -4.6,-1.1 z"
           id="path6413"
           style="fill:#b3b3b3"
           inkscape:connector-curvature="0" /><linearGradient
           id="SVGID_7_"
           gradientUnits="userSpaceOnUse"
           x1="190.4957"
           y1="443.66431"
           x2="197.2267"
           y2="443.66431"><stop
             offset="0"
             style="stop-color:#EF0081"
             id="stop6415" /><stop
             offset="0.138"
             style="stop-color:#F0117A"
             id="stop6417" /><stop
             offset="0.4108"
             style="stop-color:#F23D66"
             id="stop6419" /><stop
             offset="0.7889"
             style="stop-color:#F58348"
             id="stop6421" /><stop
             offset="1"
             style="stop-color:#F7AD35"
             id="stop6423" /></linearGradient><path
           class="st7"
           d="m 191,445.4 c -1,-1.6 -0.5,-3.7 1.1,-4.6 1.6,-1 3.7,-0.5 4.6,1.1 1,1.6 0.5,3.7 -1.1,4.6 -1.6,1 -3.6,0.5 -4.6,-1.1 z"
           id="path6426"
           style="fill:#b3b3b3"
           inkscape:connector-curvature="0" /><linearGradient
           id="SVGID_8_"
           gradientUnits="userSpaceOnUse"
           x1="277.28439"
           y1="415.94379"
           x2="291.1196"
           y2="415.94379"><stop
             offset="0"
             style="stop-color:#EF0081"
             id="stop6428" /><stop
             offset="0.138"
             style="stop-color:#F0117A"
             id="stop6430" /><stop
             offset="0.4108"
             style="stop-color:#F23D66"
             id="stop6432" /><stop
             offset="0.7889"
             style="stop-color:#F58348"
             id="stop6434" /><stop
             offset="1"
             style="stop-color:#F7AD35"
             id="stop6436" /></linearGradient><path
           class="st8"
           d="m 278.1,419.6 c -1.8,-3 -0.6,-7.1 2.7,-9.2 3.3,-2 7.6,-1.2 9.4,1.8 1.8,3 0.6,7.1 -2.7,9.2 -3.3,2.1 -7.5,1.3 -9.4,-1.8 z"
           id="path6439"
           style="fill:#b3b3b3"
           inkscape:connector-curvature="0" /><linearGradient
           id="SVGID_9_"
           gradientUnits="userSpaceOnUse"
           x1="234.47211"
           y1="413.27509"
           x2="250.02879"
           y2="413.27509"><stop
             offset="0"
             style="stop-color:#EF0081"
             id="stop6441" /><stop
             offset="0.138"
             style="stop-color:#F0117A"
             id="stop6443" /><stop
             offset="0.4108"
             style="stop-color:#F23D66"
             id="stop6445" /><stop
             offset="0.7889"
             style="stop-color:#F58348"
             id="stop6447" /><stop
             offset="1"
             style="stop-color:#F7AD35"
             id="stop6449" /></linearGradient><path
           class="st9"
           d="m 234.6,415.4 c -0.8,-2.8 2,-6 6.2,-7.2 4.2,-1.2 8.3,0.1 9.1,2.9 0.8,2.8 -2,6 -6.2,7.2 -4.3,1.2 -8.3,-0.1 -9.1,-2.9 z"
           id="path6452"
           style="fill:#b3b3b3"
           inkscape:connector-curvature="0" /><linearGradient
           id="SVGID_10_"
           gradientUnits="userSpaceOnUse"
           x1="198.0919"
           y1="424.21179"
           x2="229.89211"
           y2="424.21179"><stop
             offset="0"
             style="stop-color:#EF0081"
             id="stop6454" /><stop
             offset="0.138"
             style="stop-color:#F0117A"
             id="stop6456" /><stop
             offset="0.4108"
             style="stop-color:#F23D66"
             id="stop6458" /><stop
             offset="0.7889"
             style="stop-color:#F58348"
             id="stop6460" /><stop
             offset="1"
             style="stop-color:#F7AD35"
             id="stop6462" /></linearGradient><linearGradient
           id="SVGID_11_"
           gradientUnits="userSpaceOnUse"
           x1="276.65289"
           y1="563.17761"
           x2="309.13461"
           y2="563.17761"><stop
             offset="0"
             style="stop-color:#EF0081"
             id="stop6467" /><stop
             offset="0.138"
             style="stop-color:#F0117A"
             id="stop6469" /><stop
             offset="0.4108"
             style="stop-color:#F23D66"
             id="stop6471" /><stop
             offset="0.7889"
             style="stop-color:#F58348"
             id="stop6473" /><stop
             offset="1"
             style="stop-color:#F7AD35"
             id="stop6475" /></linearGradient><path
           class="st11"
           d="m 277.1,571.8 c -1.9,-4.8 2,-14.4 11.6,-18.3 14.6,-5.9 19.5,4.2 20,5.5 1.9,4.8 -3.4,7.9 -13,11.8 -9.6,3.9 -16.6,5.8 -18.6,1 z"
           id="path6478"
           style="fill:#b3b3b3"
           inkscape:connector-curvature="0" /><linearGradient
           id="SVGID_12_"
           gradientUnits="userSpaceOnUse"
           x1="176.4635"
           y1="504.94781"
           x2="186.3082"
           y2="504.94781"><stop
             offset="0"
             style="stop-color:#EF0081"
             id="stop6480" /><stop
             offset="0.138"
             style="stop-color:#F0117A"
             id="stop6482" /><stop
             offset="0.4108"
             style="stop-color:#F23D66"
             id="stop6484" /><stop
             offset="0.7889"
             style="stop-color:#F58348"
             id="stop6486" /><stop
             offset="1"
             style="stop-color:#F7AD35"
             id="stop6488" /></linearGradient><path
           class="st12"
           d="m 177,506.2 c -1.2,-4.2 -0.3,-8.1 2.2,-8.8 2.4,-0.7 5.4,2.1 6.6,6.2 1.2,4.2 0.3,8.1 -2.2,8.8 -2.4,0.8 -5.4,-2 -6.6,-6.2 z"
           id="path6491"
           style="fill:#b3b3b3"
           inkscape:connector-curvature="0" /><linearGradient
           id="SVGID_13_"
           gradientUnits="userSpaceOnUse"
           x1="227.40739"
           y1="543.76837"
           x2="264.00201"
           y2="543.76837"><stop
             offset="0"
             style="stop-color:#EF0081"
             id="stop6493" /><stop
             offset="0.138"
             style="stop-color:#F0117A"
             id="stop6495" /><stop
             offset="0.4108"
             style="stop-color:#F23D66"
             id="stop6497" /><stop
             offset="0.7889"
             style="stop-color:#F58348"
             id="stop6499" /><stop
             offset="1"
             style="stop-color:#F7AD35"
             id="stop6501" /></linearGradient><path
           class="st13"
           d="m 264,543.1 v 0 c 0.1,4.6 -7.9,8.6 -18,9 -10.1,0.3 -18.4,-3.1 -18.6,-7.7 0,-1.3 0.5,-2.5 1.6,-3.6 2.8,-2.9 9.1,-5.1 16.4,-5.3 10.1,-0.4 18.4,3 18.6,7.6 z"
           id="path6504"
           style="fill:#b3b3b3"
           inkscape:connector-curvature="0" /><linearGradient
           id="SVGID_14_"
           gradientUnits="userSpaceOnUse"
           x1="229.0134"
           y1="541.96082"
           x2="264"
           y2="541.96082"><stop
             offset="0"
             style="stop-color:#EF0081"
             id="stop6506" /><stop
             offset="0.138"
             style="stop-color:#F0117A"
             id="stop6508" /><stop
             offset="0.4108"
             style="stop-color:#F23D66"
             id="stop6510" /><stop
             offset="0.7889"
             style="stop-color:#F58348"
             id="stop6512" /><stop
             offset="1"
             style="stop-color:#F7AD35"
             id="stop6514" /></linearGradient><path
           class="st14"
           d="m 264,543.1 c -2.8,2.9 -9.1,5.1 -16.4,5.3 -10.1,0.3 -18.4,-3.1 -18.6,-7.7 2.8,-2.9 9.1,-5.1 16.4,-5.3 10.1,-0.3 18.4,3.1 18.6,7.7 z"
           id="path6517"
           style="fill:#b3b3b3"
           inkscape:connector-curvature="0" /><linearGradient
           id="SVGID_15_"
           gradientUnits="userSpaceOnUse"
           x1="247.80231"
           y1="474.4986"
           x2="274.2832"
           y2="474.4986"><stop
             offset="0"
             style="stop-color:#EF0081"
             id="stop6519" /><stop
             offset="0.138"
             style="stop-color:#F0117A"
             id="stop6521" /><stop
             offset="0.4108"
             style="stop-color:#F23D66"
             id="stop6523" /><stop
             offset="0.7889"
             style="stop-color:#F58348"
             id="stop6525" /><stop
             offset="1"
             style="stop-color:#F7AD35"
             id="stop6527" /></linearGradient><path
           class="st15"
           d="m 266.1,483.7 c -5.4,3 -11.4,2.9 -15.1,0.1 -0.9,-0.7 -1.7,-1.5 -2.2,-2.6 -2.8,-5.1 0.4,-12.2 7.1,-16 6.3,-3.5 13.5,-2.8 16.7,1.5 0.2,0.3 0.4,0.6 0.6,0.9 2.9,5.2 -0.3,12.3 -7.1,16.1 z"
           id="path6530"
           style="fill:#b3b3b3"
           inkscape:connector-curvature="0" /><linearGradient
           id="SVGID_16_"
           gradientUnits="userSpaceOnUse"
           x1="249.41879"
           y1="475.30688"
           x2="274.2832"
           y2="475.30688"><stop
             offset="0"
             style="stop-color:#EF0081"
             id="stop6532" /><stop
             offset="0.138"
             style="stop-color:#F0117A"
             id="stop6534" /><stop
             offset="0.4108"
             style="stop-color:#F23D66"
             id="stop6536" /><stop
             offset="0.7889"
             style="stop-color:#F58348"
             id="stop6538" /><stop
             offset="1"
             style="stop-color:#F7AD35"
             id="stop6540" /></linearGradient><path
           class="st16"
           d="m 266.1,483.7 c -5.4,3 -11.4,2.9 -15.1,0.1 -0.2,-0.3 -0.4,-0.6 -0.6,-0.9 -2.8,-5.1 0.4,-12.2 7.1,-16 5.4,-3 11.5,-2.9 15.1,-0.1 0.2,0.3 0.4,0.6 0.6,0.9 2.9,5.1 -0.3,12.2 -7.1,16 z"
           id="path6543"
           style="fill:#b3b3b3"
           inkscape:connector-curvature="0" /><linearGradient
           id="SVGID_17_"
           gradientUnits="userSpaceOnUse"
           x1="227.5752"
           y1="437.7984"
           x2="239.2249"
           y2="437.7984"><stop
             offset="0"
             style="stop-color:#EF0081"
             id="stop6545" /><stop
             offset="0.138"
             style="stop-color:#F0117A"
             id="stop6547" /><stop
             offset="0.4108"
             style="stop-color:#F23D66"
             id="stop6549" /><stop
             offset="0.7889"
             style="stop-color:#F58348"
             id="stop6551" /><stop
             offset="1"
             style="stop-color:#F7AD35"
             id="stop6553" /></linearGradient><path
           class="st17"
           d="m 227.6,439.2 c -0.5,-1.9 1.7,-4.1 4.9,-4.9 3.2,-0.8 6.1,0.1 6.6,2 0.5,1.9 -1.7,4.1 -4.9,4.9 -3.1,0.8 -6.1,-0.1 -6.6,-2 z"
           id="path6556"
           style="fill:#b3b3b3"
           inkscape:connector-curvature="0" /><linearGradient
           id="SVGID_18_"
           gradientUnits="userSpaceOnUse"
           x1="229.37511"
           y1="463.2764"
           x2="241.00031"
           y2="463.2764"><stop
             offset="0"
             style="stop-color:#EF0081"
             id="stop6558" /><stop
             offset="0.138"
             style="stop-color:#F0117A"
             id="stop6560" /><stop
             offset="0.4108"
             style="stop-color:#F23D66"
             id="stop6562" /><stop
             offset="0.7889"
             style="stop-color:#F58348"
             id="stop6564" /><stop
             offset="1"
             style="stop-color:#F7AD35"
             id="stop6566" /></linearGradient><path
           class="st18"
           d="m 233.1,472.4 c -3,-0.7 -4.5,-5.3 -3.3,-10.4 1.1,-5 4.5,-8.6 7.5,-7.9 3,0.7 4.5,5.3 3.3,10.4 -1.1,5.1 -4.5,8.6 -7.5,7.9 z"
           id="path6569"
           style="fill:#b3b3b3"
           inkscape:connector-curvature="0" /><linearGradient
           id="SVGID_19_"
           gradientUnits="userSpaceOnUse"
           x1="285.0354"
           y1="454.77301"
           x2="325.33578"
           y2="454.77301"><stop
             offset="0"
             style="stop-color:#EF0081"
             id="stop6571" /><stop
             offset="0.138"
             style="stop-color:#F0117A"
             id="stop6573" /><stop
             offset="0.4108"
             style="stop-color:#F23D66"
             id="stop6575" /><stop
             offset="0.7889"
             style="stop-color:#F58348"
             id="stop6577" /><stop
             offset="1"
             style="stop-color:#F7AD35"
             id="stop6579" /></linearGradient><path
           class="st19"
           d="m 323.9,469.2 c -0.8,1.1 -2,1.9 -3.4,2.3 -5.4,1.8 -14.5,-0.8 -22.7,-7.2 -9.1,-7 -14.1,-16.2 -12.4,-21.9 0.2,-0.8 0.6,-1.5 1.1,-2.2 4.1,-5.3 15.8,-3.2 26.1,4.8 10.3,8.1 15.4,18.9 11.3,24.2 z"
           id="path6582"
           style="fill:#b3b3b3"
           inkscape:connector-curvature="0" /><linearGradient
           id="SVGID_20_"
           gradientUnits="userSpaceOnUse"
           x1="285.0354"
           y1="457.02069"
           x2="320.8392"
           y2="457.02069"><stop
             offset="0"
             style="stop-color:#EF0081"
             id="stop6584" /><stop
             offset="0.138"
             style="stop-color:#F0117A"
             id="stop6586" /><stop
             offset="0.4108"
             style="stop-color:#F23D66"
             id="stop6588" /><stop
             offset="0.7889"
             style="stop-color:#F58348"
             id="stop6590" /><stop
             offset="1"
             style="stop-color:#F7AD35"
             id="stop6592" /></linearGradient><linearGradient
           id="SVGID_21_"
           gradientUnits="userSpaceOnUse"
           x1="317.39511"
           y1="479.4606"
           x2="323.85721"
           y2="479.4606"><stop
             offset="0"
             style="stop-color:#EF0081"
             id="stop6597" /><stop
             offset="0.138"
             style="stop-color:#F0117A"
             id="stop6599" /><stop
             offset="0.4108"
             style="stop-color:#F23D66"
             id="stop6601" /><stop
             offset="0.7889"
             style="stop-color:#F58348"
             id="stop6603" /><stop
             offset="1"
             style="stop-color:#F7AD35"
             id="stop6605" /></linearGradient><path
           class="st21"
           d="m 317.9,481.1 c -0.9,-1.5 -0.4,-3.5 1.1,-4.4 1.5,-0.9 3.5,-0.4 4.4,1.1 0.9,1.5 0.4,3.5 -1.1,4.4 -1.5,0.9 -3.5,0.5 -4.4,-1.1 z"
           id="path6608"
           style="fill:#b3b3b3"
           inkscape:connector-curvature="0" /><linearGradient
           id="SVGID_22_"
           gradientUnits="userSpaceOnUse"
           x1="302.0527"
           y1="505.70319"
           x2="312.03131"
           y2="505.70319"><stop
             offset="0"
             style="stop-color:#EF0081"
             id="stop6610" /><stop
             offset="0.138"
             style="stop-color:#F0117A"
             id="stop6612" /><stop
             offset="0.4108"
             style="stop-color:#F23D66"
             id="stop6614" /><stop
             offset="0.7889"
             style="stop-color:#F58348"
             id="stop6616" /><stop
             offset="1"
             style="stop-color:#F7AD35"
             id="stop6618" /></linearGradient><path
           class="st22"
           d="m 302.2,505 c 0.6,-4.3 3.2,-7.5 5.9,-7.1 2.7,0.4 4.4,4.1 3.8,8.4 -0.6,4.3 -3.2,7.5 -5.9,7.1 -2.7,-0.3 -4.4,-4.1 -3.8,-8.4 z"
           id="path6621"
           style="fill:#b3b3b3"
           inkscape:connector-curvature="0" /><linearGradient
           id="SVGID_23_"
           gradientUnits="userSpaceOnUse"
           x1="269.25369"
           y1="497.30701"
           x2="278.43619"
           y2="497.30701"><stop
             offset="0"
             style="stop-color:#EF0081"
             id="stop6623" /><stop
             offset="0.138"
             style="stop-color:#F0117A"
             id="stop6625" /><stop
             offset="0.4108"
             style="stop-color:#F23D66"
             id="stop6627" /><stop
             offset="0.7889"
             style="stop-color:#F58348"
             id="stop6629" /><stop
             offset="1"
             style="stop-color:#F7AD35"
             id="stop6631" /></linearGradient><path
           class="st23"
           d="m 270.5,499.3 c -1.7,-2.9 -1.7,-6.2 0.2,-7.3 1.8,-1.1 4.7,0.4 6.5,3.3 1.7,2.9 1.7,6.2 -0.2,7.3 -1.8,1.1 -4.7,-0.4 -6.5,-3.3 z"
           id="path6634"
           style="fill:#b3b3b3"
           inkscape:connector-curvature="0" /><linearGradient
           id="SVGID_24_"
           gradientUnits="userSpaceOnUse"
           x1="259.5921"
           y1="495.03479"
           x2="264.43799"
           y2="495.03479"><stop
             offset="0"
             style="stop-color:#EF0081"
             id="stop6636" /><stop
             offset="0.138"
             style="stop-color:#F0117A"
             id="stop6638" /><stop
             offset="0.4108"
             style="stop-color:#F23D66"
             id="stop6640" /><stop
             offset="0.7889"
             style="stop-color:#F58348"
             id="stop6642" /><stop
             offset="1"
             style="stop-color:#F7AD35"
             id="stop6644" /></linearGradient><path
           class="st24"
           d="m 259.9,496.3 c -0.7,-1.1 -0.3,-2.6 0.8,-3.3 1.1,-0.7 2.6,-0.3 3.3,0.8 0.7,1.1 0.3,2.6 -0.8,3.3 -1.1,0.7 -2.6,0.3 -3.3,-0.8 z"
           id="path6647"
           style="fill:#b3b3b3"
           inkscape:connector-curvature="0" /><linearGradient
           id="SVGID_25_"
           gradientUnits="userSpaceOnUse"
           x1="221.9702"
           y1="529.98633"
           x2="232.44659"
           y2="529.98633"><stop
             offset="0"
             style="stop-color:#EF0081"
             id="stop6649" /><stop
             offset="0.138"
             style="stop-color:#F0117A"
             id="stop6651" /><stop
             offset="0.4108"
             style="stop-color:#F23D66"
             id="stop6653" /><stop
             offset="0.7889"
             style="stop-color:#F58348"
             id="stop6655" /><stop
             offset="1"
             style="stop-color:#F7AD35"
             id="stop6657" /></linearGradient><path
           class="st25"
           d="m 222.4,532.9 c -1.1,-1.8 0.1,-4.6 2.8,-6.3 2.7,-1.6 5.7,-1.5 6.9,0.4 1.1,1.8 -0.1,4.7 -2.8,6.3 -2.7,1.6 -5.8,1.5 -6.9,-0.4 z"
           id="path6660"
           style="fill:#b3b3b3"
           inkscape:connector-curvature="0" /><linearGradient
           id="SVGID_26_"
           gradientUnits="userSpaceOnUse"
           x1="194.0616"
           y1="495.05731"
           x2="217.7341"
           y2="495.05731"><stop
             offset="0"
             style="stop-color:#EF0081"
             id="stop6662" /><stop
             offset="0.138"
             style="stop-color:#F0117A"
             id="stop6664" /><stop
             offset="0.4108"
             style="stop-color:#F23D66"
             id="stop6666" /><stop
             offset="0.7889"
             style="stop-color:#F58348"
             id="stop6668" /><stop
             offset="1"
             style="stop-color:#F7AD35"
             id="stop6670" /></linearGradient><path
           class="st26"
           d="m 210.9,515.9 c -0.6,0.3 -1.3,0.5 -2.1,0.6 -6.3,0.9 -12.8,-8.1 -14.4,-19.9 -1.6,-11.9 2.2,-22.2 8.6,-23 1.3,-0.2 2.6,0.1 3.9,0.6 4.9,2.3 9.2,9.8 10.5,19.3 1.4,10.5 -1.5,19.8 -6.5,22.4 z"
           id="path6673"
           style="fill:#b3b3b3"
           inkscape:connector-curvature="0" /><linearGradient
           id="SVGID_27_"
           gradientUnits="userSpaceOnUse"
           x1="199.9828"
           y1="495.05759"
           x2="217.7341"
           y2="495.05759"><stop
             offset="0"
             style="stop-color:#EF0081"
             id="stop6675" /><stop
             offset="0.138"
             style="stop-color:#F0117A"
             id="stop6677" /><stop
             offset="0.4108"
             style="stop-color:#F23D66"
             id="stop6679" /><stop
             offset="0.7889"
             style="stop-color:#F58348"
             id="stop6681" /><stop
             offset="1"
             style="stop-color:#F7AD35"
             id="stop6683" /></linearGradient><path
           class="st27"
           d="m 210.9,515.9 c -4.9,-2.3 -9.2,-9.8 -10.5,-19.3 -1.4,-10.5 1.4,-19.8 6.5,-22.4 4.9,2.3 9.2,9.8 10.5,19.3 1.4,10.5 -1.5,19.8 -6.5,22.4 z"
           id="path6686"
           style="fill:#b3b3b3"
           inkscape:connector-curvature="0" /><linearGradient
           id="SVGID_28_"
           gradientUnits="userSpaceOnUse"
           x1="264.8725"
           y1="551.89392"
           x2="277.44211"
           y2="551.89392"><stop
             offset="0"
             style="stop-color:#EF0081"
             id="stop6688" /><stop
             offset="0.138"
             style="stop-color:#F0117A"
             id="stop6690" /><stop
             offset="0.4108"
             style="stop-color:#F23D66"
             id="stop6692" /><stop
             offset="0.7889"
             style="stop-color:#F58348"
             id="stop6694" /><stop
             offset="1"
             style="stop-color:#F7AD35"
             id="stop6696" /></linearGradient><path
           class="st28"
           d="m 264.9,553.7 c -0.5,-1.9 1.8,-4.2 5.2,-5.1 3.4,-1 6.6,-0.3 7.2,1.6 0.5,1.9 -1.8,4.2 -5.2,5.1 -3.4,0.9 -6.6,0.2 -7.2,-1.6 z"
           id="path6699"
           style="fill:#b3b3b3"
           inkscape:connector-curvature="0" /><linearGradient
           id="SVGID_29_"
           gradientUnits="userSpaceOnUse"
           x1="274.3251"
           y1="530.6983"
           x2="287.8526"
           y2="530.6983"><stop
             offset="0"
             style="stop-color:#EF0081"
             id="stop6701" /><stop
             offset="0.138"
             style="stop-color:#F0117A"
             id="stop6703" /><stop
             offset="0.4108"
             style="stop-color:#F23D66"
             id="stop6705" /><stop
             offset="0.7889"
             style="stop-color:#F58348"
             id="stop6707" /><stop
             offset="1"
             style="stop-color:#F7AD35"
             id="stop6709" /></linearGradient><path
           class="st29"
           d="m 274.4,532.2 c -0.5,-2.3 2.1,-4.7 5.8,-5.6 3.7,-0.8 7.1,0.3 7.6,2.6 0.5,2.2 -2.1,4.7 -5.8,5.6 -3.7,0.8 -7.1,-0.4 -7.6,-2.6 z"
           id="path6712"
           style="fill:#b3b3b3"
           inkscape:connector-curvature="0" /><linearGradient
           id="SVGID_30_"
           gradientUnits="userSpaceOnUse"
           x1="281.80789"
           y1="568.06152"
           x2="304.22501"
           y2="568.06152"><stop
             offset="0"
             style="stop-color:#EF0081"
             id="stop6714" /><stop
             offset="0.138"
             style="stop-color:#F0117A"
             id="stop6716" /><stop
             offset="0.4108"
             style="stop-color:#F23D66"
             id="stop6718" /><stop
             offset="0.7889"
             style="stop-color:#F58348"
             id="stop6720" /><stop
             offset="1"
             style="stop-color:#F7AD35"
             id="stop6722" /></linearGradient><path
           class="st30"
           d="m 281.8,572.5 c -0.2,-0.6 4.6,-3 10.8,-5.5 6.2,-2.5 11.4,-4 11.6,-3.5 0.2,0.6 -4.6,3 -10.8,5.5 -6.2,2.5 -11.4,4.1 -11.6,3.5 z"
           id="path6725"
           style="fill:#b3b3b3"
           inkscape:connector-curvature="0" /><linearGradient
           id="SVGID_31_"
           gradientUnits="userSpaceOnUse"
           x1="201.83701"
           y1="420.02811"
           x2="223.0862"
           y2="420.02811"><stop
             offset="0"
             style="stop-color:#EF0081"
             id="stop6727" /><stop
             offset="0.138"
             style="stop-color:#F0117A"
             id="stop6729" /><stop
             offset="0.4108"
             style="stop-color:#F23D66"
             id="stop6731" /><stop
             offset="0.7889"
             style="stop-color:#F58348"
             id="stop6733" /><stop
             offset="1"
             style="stop-color:#F7AD35"
             id="stop6735" /></linearGradient><linearGradient
           id="SVGID_32_"
           gradientUnits="userSpaceOnUse"
           x1="270.81631"
           y1="438.2496"
           x2="280.62549"
           y2="438.2496"><stop
             offset="0"
             style="stop-color:#EF0081"
             id="stop6740" /><stop
             offset="0.138"
             style="stop-color:#F0117A"
             id="stop6742" /><stop
             offset="0.4108"
             style="stop-color:#F23D66"
             id="stop6744" /><stop
             offset="0.7889"
             style="stop-color:#F58348"
             id="stop6746" /><stop
             offset="1"
             style="stop-color:#F7AD35"
             id="stop6748" /></linearGradient><path
           class="st32"
           d="m 271.2,441 c -1,-1.7 0.1,-4.3 2.6,-5.9 2.5,-1.5 5.4,-1.4 6.4,0.3 1,1.7 -0.1,4.3 -2.6,5.9 -2.5,1.6 -5.4,1.4 -6.4,-0.3 z"
           id="path6751"
           style="fill:#b3b3b3"
           inkscape:connector-curvature="0" /><linearGradient
           id="SVGID_33_"
           gradientUnits="userSpaceOnUse"
           x1="187.92709"
           y1="510.66391"
           x2="196.1002"
           y2="510.66391"><stop
             offset="0"
             style="stop-color:#EF0081"
             id="stop6753" /><stop
             offset="0.138"
             style="stop-color:#F0117A"
             id="stop6755" /><stop
             offset="0.4108"
             style="stop-color:#F23D66"
             id="stop6757" /><stop
             offset="0.7889"
             style="stop-color:#F58348"
             id="stop6759" /><stop
             offset="1"
             style="stop-color:#F7AD35"
             id="stop6761" /></linearGradient><path
           class="st33"
           d="m 188.9,512.6 c -1.5,-2.4 -1.3,-5.2 0.5,-6.2 1.7,-1 4.3,0.1 5.8,2.4 1.5,2.4 1.3,5.2 -0.5,6.2 -1.8,1.1 -4.3,0 -5.8,-2.4 z"
           id="path6764"
           style="fill:#b3b3b3"
           inkscape:connector-curvature="0" /><linearGradient
           id="SVGID_34_"
           gradientUnits="userSpaceOnUse"
           x1="292.37909"
           y1="546.26459"
           x2="303.2395"
           y2="546.26459"><stop
             offset="0"
             style="stop-color:#EF0081"
             id="stop6766" /><stop
             offset="0.138"
             style="stop-color:#F0117A"
             id="stop6768" /><stop
             offset="0.4108"
             style="stop-color:#F23D66"
             id="stop6770" /><stop
             offset="0.7889"
             style="stop-color:#F58348"
             id="stop6772" /><stop
             offset="1"
             style="stop-color:#F7AD35"
             id="stop6774" /></linearGradient><path
           class="st34"
           d="m 292.6,549.4 c -0.9,-1.5 0.7,-4.1 3.5,-5.9 2.9,-1.7 5.9,-1.9 6.8,-0.4 0.9,1.5 -0.7,4.1 -3.5,5.9 -2.8,1.7 -5.8,1.9 -6.8,0.4 z"
           id="path6777"
           style="fill:#b3b3b3"
           inkscape:connector-curvature="0" /><linearGradient
           id="SVGID_35_"
           gradientUnits="userSpaceOnUse"
           x1="284.04401"
           y1="545.67401"
           x2="288.50739"
           y2="545.67401"><stop
             offset="0"
             style="stop-color:#EF0081"
             id="stop6779" /><stop
             offset="0.138"
             style="stop-color:#F0117A"
             id="stop6781" /><stop
             offset="0.4108"
             style="stop-color:#F23D66"
             id="stop6783" /><stop
             offset="0.7889"
             style="stop-color:#F58348"
             id="stop6785" /><stop
             offset="1"
             style="stop-color:#F7AD35"
             id="stop6787" /></linearGradient><path
           class="st35"
           d="m 284.3,546.9 c -0.6,-1 -0.2,-2.3 0.8,-3 1.1,-0.7 2.4,-0.4 3,0.6 0.6,1 0.2,2.3 -0.8,3 -1,0.6 -2.4,0.4 -3,-0.6 z"
           id="path6790"
           style="fill:#b3b3b3"
           inkscape:connector-curvature="0" /><linearGradient
           id="SVGID_36_"
           gradientUnits="userSpaceOnUse"
           x1="323.0535"
           y1="517.80017"
           x2="330.63501"
           y2="517.80017"><stop
             offset="0"
             style="stop-color:#EF0081"
             id="stop6792" /><stop
             offset="0.138"
             style="stop-color:#F0117A"
             id="stop6794" /><stop
             offset="0.4108"
             style="stop-color:#F23D66"
             id="stop6796" /><stop
             offset="0.7889"
             style="stop-color:#F58348"
             id="stop6798" /><stop
             offset="1"
             style="stop-color:#F7AD35"
             id="stop6800" /></linearGradient><path
           class="st36"
           d="m 324.5,522.4 c -1.6,-0.8 -1.9,-3.6 -0.6,-6.1 1.3,-2.5 3.7,-3.9 5.3,-3 1.6,0.8 1.9,3.6 0.6,6.1 -1.3,2.5 -3.7,3.8 -5.3,3 z"
           id="path6803"
           style="fill:#b3b3b3"
           inkscape:connector-curvature="0" /></g><path
         class="st37"
         d="m 256.2,427.5 c 0,1.9 -1.5,3.4 -3.4,3.4 -1.9,0 -3.4,-1.5 -3.4,-3.4 0,-1.9 1.5,-3.4 3.4,-3.4 1.9,-0.1 3.4,1.5 3.4,3.4 z"
         id="path6807"
         style="fill:#b3b3b3"
         inkscape:connector-curvature="0" /><ellipse
         class="st37"
         cx="249.5"
         cy="416.20001"
         rx="6.5"
         ry="2.0999999"
         id="ellipse6809"
         style="fill:#b3b3b3" /><ellipse
         class="st37"
         cx="279.5"
         cy="416.60001"
         rx="6.5"
         ry="2.0999999"
         id="ellipse6811"
         style="fill:#b3b3b3" /></g><path
       class="st0"
       d="m 332,529.8 c -0.1,0.2 -0.2,0.4 -0.3,0.6 17.7,20.9 21.7,36.1 7.6,38.3 -21.4,3.4 -76.6,-24.4 -123.2,-62.2 -46.6,-37.7 -72.3,-72 -50.8,-75.4 7.4,-1.2 19.5,1.5 34.1,7 0.7,-0.8 1.5,-1.5 2.2,-2.2 -19.9,-8.9 -36.6,-13.5 -46.7,-11.8 -24.2,3.9 -1.2,41.5 51.3,84 52.5,42.5 114.7,73.9 138.8,70 17.1,-2.6 10.7,-22.1 -13,-48.3 z"
       id="path6815"
       style="fill:#666666"
       inkscape:connector-curvature="0" /></g><linearGradient
     id="SVGID_41_"
     gradientUnits="userSpaceOnUse"
     x1="305.92841"
     y1="679.97321"
     x2="513.88812"
     y2="679.97321"
     gradientTransform="matrix(0.6973,-0.5367,0.703,0.3827,-51.3355,779.3688)"><stop
       offset="0"
       style="stop-color:#EF0081"
       id="stop6949" /><stop
       offset="0.138"
       style="stop-color:#F0117A"
       id="stop6951" /><stop
       offset="0.4108"
       style="stop-color:#F23D66"
       id="stop6953" /><stop
       offset="0.7889"
       style="stop-color:#F58348"
       id="stop6955" /><stop
       offset="1"
       style="stop-color:#F7AD35"
       id="stop6957" /></linearGradient><linearGradient
     id="SVGID_42_"
     gradientUnits="userSpaceOnUse"
     x1="567.33868"
     y1="-63.0471"
     x2="567.33868"
     y2="-89.0998"
     gradientTransform="matrix(1,0,0,-1,0,45.9002)"><stop
       offset="0"
       style="stop-color:#EF0081"
       id="stop6968" /><stop
       offset="0.138"
       style="stop-color:#F0117A"
       id="stop6970" /><stop
       offset="0.4108"
       style="stop-color:#F23D66"
       id="stop6972" /><stop
       offset="0.7889"
       style="stop-color:#F58348"
       id="stop6974" /><stop
       offset="1"
       style="stop-color:#F7AD35"
       id="stop6976" /></linearGradient><linearGradient
     id="SVGID_47_"
     gradientUnits="userSpaceOnUse"
     x1="185.71159"
     y1="-55.343899"
     x2="185.71159"
     y2="-82.0998"
     gradientTransform="matrix(1,0,0,-1,0,45.9002)"><stop
       offset="0"
       style="stop-color:#EF0081"
       id="stop7041" /><stop
       offset="0.138"
       style="stop-color:#F0117A"
       id="stop7043" /><stop
       offset="0.4108"
       style="stop-color:#F23D66"
       id="stop7045" /><stop
       offset="0.7889"
       style="stop-color:#F58348"
       id="stop7047" /><stop
       offset="1"
       style="stop-color:#F7AD35"
       id="stop7049" /></linearGradient><linearGradient
     id="SVGID_50_"
     gradientUnits="userSpaceOnUse"
     x1="359.71161"
     y1="-177.89079"
     x2="359.71161"
     y2="-204.09979"
     gradientTransform="matrix(1,0,0,-1,0,45.9002)"><stop
       offset="0"
       style="stop-color:#EF0081"
       id="stop7094" /><stop
       offset="0.138"
       style="stop-color:#F0117A"
       id="stop7096" /><stop
       offset="0.4108"
       style="stop-color:#F23D66"
       id="stop7098" /><stop
       offset="0.7889"
       style="stop-color:#F58348"
       id="stop7100" /><stop
       offset="1"
       style="stop-color:#F7AD35"
       id="stop7102" /></linearGradient></svg>