<?xml version="1.0" encoding="UTF-8" standalone="no"?>
<!-- Generator: Adobe Illustrator 22.0.1, SVG Export Plug-In . SVG Version: 6.00 Build 0)  -->

<svg
   xmlns:dc="http://purl.org/dc/elements/1.1/"
   xmlns:cc="http://creativecommons.org/ns#"
   xmlns:rdf="http://www.w3.org/1999/02/22-rdf-syntax-ns#"
   xmlns:svg="http://www.w3.org/2000/svg"
   xmlns="http://www.w3.org/2000/svg"
   xmlns:sodipodi="http://sodipodi.sourceforge.net/DTD/sodipodi-0.dtd"
   xmlns:inkscape="http://www.inkscape.org/namespaces/inkscape"
   version="1.1"
   id="Layer_1"
   x="0px"
   y="0px"
   viewBox="0 0 500 400"
   xml:space="preserve"
   sodipodi:docname="No Articles.svg"
   inkscape:version="0.92.2 5c3e80d, 2017-08-06"
   width="500"
   height="400"><metadata
     id="metadata7133"><rdf:RDF><cc:Work
         rdf:about=""><dc:format>image/svg+xml</dc:format><dc:type
           rdf:resource="http://purl.org/dc/dcmitype/StillImage" /><dc:title></dc:title></cc:Work></rdf:RDF></metadata><defs
     id="defs7131" /><sodipodi:namedview
     pagecolor="#ffffff"
     bordercolor="#666666"
     borderopacity="1"
     objecttolerance="10"
     gridtolerance="10"
     guidetolerance="10"
     inkscape:pageopacity="0"
     inkscape:pageshadow="2"
     inkscape:window-width="1440"
     inkscape:window-height="789"
     id="namedview7129"
     showgrid="false"
     showguides="false"
     inkscape:lockguides="true"
     inkscape:zoom="0.470226"
     inkscape:cx="877.10461"
     inkscape:cy="475.77491"
     inkscape:window-x="0"
     inkscape:window-y="1"
     inkscape:window-maximized="1"
     inkscape:current-layer="Layer_1"><inkscape:grid
       type="xygrid"
       id="grid1268" /></sodipodi:namedview><style
     type="text/css"
     id="style6251">
	.st0{fill:#3D4DAC;}
	.st1{fill:url(#SVGID_1_);}
	.st2{fill:url(#SVGID_2_);}
	.st3{fill:url(#SVGID_3_);}
	.st4{fill:url(#SVGID_4_);}
	.st5{fill:url(#SVGID_5_);}
	.st6{fill:url(#SVGID_6_);}
	.st7{fill:url(#SVGID_7_);}
	.st8{fill:url(#SVGID_8_);}
	.st9{fill:url(#SVGID_9_);}
	.st10{fill:url(#SVGID_10_);}
	.st11{fill:url(#SVGID_11_);}
	.st12{fill:url(#SVGID_12_);}
	.st13{fill:url(#SVGID_13_);}
	.st14{fill:url(#SVGID_14_);}
	.st15{fill:url(#SVGID_15_);}
	.st16{fill:url(#SVGID_16_);}
	.st17{fill:url(#SVGID_17_);}
	.st18{fill:url(#SVGID_18_);}
	.st19{fill:url(#SVGID_19_);}
	.st20{fill:url(#SVGID_20_);}
	.st21{fill:url(#SVGID_21_);}
	.st22{fill:url(#SVGID_22_);}
	.st23{fill:url(#SVGID_23_);}
	.st24{fill:url(#SVGID_24_);}
	.st25{fill:url(#SVGID_25_);}
	.st26{fill:url(#SVGID_26_);}
	.st27{fill:url(#SVGID_27_);}
	.st28{fill:url(#SVGID_28_);}
	.st29{fill:url(#SVGID_29_);}
	.st30{fill:url(#SVGID_30_);}
	.st31{fill:url(#SVGID_31_);}
	.st32{fill:url(#SVGID_32_);}
	.st33{fill:url(#SVGID_33_);}
	.st34{fill:url(#SVGID_34_);}
	.st35{fill:url(#SVGID_35_);}
	.st36{fill:url(#SVGID_36_);}
	.st37{fill:#D7591E;}
	.st38{fill:#444444;}
	.st39{font-family:'Circular-Black';}
	.st40{font-size:48.0499px;}
	.st41{fill:#282828;}
	.st42{font-family:'Helvetica-Light';}
	.st43{font-size:19.5199px;}
	.st44{font-size:20.2043px;}
	.st45{font-size:19.1566px;}
	.st46{fill:url(#SVGID_37_);}
	.st47{fill:#FFFFFF;}
	.st48{fill:url(#SVGID_38_);}
	.st49{fill:url(#SVGID_39_);}
	.st50{fill:url(#SVGID_40_);}
	.st51{fill:url(#SVGID_41_);}
	.st52{fill:url(#SVGID_42_);}
	.st53{fill:url(#SVGID_43_);}
	.st54{fill:url(#SVGID_44_);}
	.st55{fill:url(#SVGID_45_);}
	.st56{fill:url(#SVGID_46_);}
	.st57{fill:url(#SVGID_47_);}
	.st58{fill:url(#SVGID_48_);}
	.st59{fill:url(#SVGID_49_);}
	.st60{fill:url(#SVGID_50_);}
	.st61{fill:#3A00C9;}
	.st62{fill:url(#SVGID_51_);}
</style><g
     id="g6941"
     transform="matrix(1.1273767,0,0,1.1727058,-634.8399,-232.3752)"><g
       id="g6867"
       style="fill:#808080"><path
         class="st0"
         d="m 869,237.9 c 0,1.3 -1,2.3 -2.2,2.3 -1.2,0 -2.2,-1 -2.2,-2.3 0,-1.3 1,-2.3 2.2,-2.3 1.2,0 2.2,1.1 2.2,2.3 z"
         id="path6827"
         style="fill:#808080"
         inkscape:connector-curvature="0" /><path
         class="st0"
         d="m 924.3,323.5 c 0,1.3 -1,2.3 -2.2,2.3 -1.2,0 -2.2,-1 -2.2,-2.3 0,-1.3 1,-2.3 2.2,-2.3 1.2,0 2.2,1.1 2.2,2.3 z"
         id="path6829"
         style="fill:#808080"
         inkscape:connector-curvature="0" /><path
         class="st0"
         d="m 887.8,390.5 c 0,1.3 -1,2.3 -2.2,2.3 -1.2,0 -2.2,-1 -2.2,-2.3 0,-1.3 1,-2.3 2.2,-2.3 1.2,-0.1 2.2,1 2.2,2.3 z"
         id="path6831"
         style="fill:#808080"
         inkscape:connector-curvature="0" /><path
         class="st0"
         d="m 892.6,386.4 c 0,1 -0.8,1.8 -1.7,1.8 -0.9,0 -1.7,-0.8 -1.7,-1.8 0,-1 0.8,-1.8 1.7,-1.8 1,0 1.7,0.8 1.7,1.8 z"
         id="path6833"
         style="fill:#808080"
         inkscape:connector-curvature="0" /><path
         class="st0"
         d="m 977,309.2 c 0,1 -0.8,1.8 -1.7,1.8 -0.9,0 -1.7,-0.8 -1.7,-1.8 0,-1 0.8,-1.8 1.7,-1.8 0.9,0 1.7,0.8 1.7,1.8 z"
         id="path6835"
         style="fill:#808080"
         inkscape:connector-curvature="0" /><path
         class="st0"
         d="m 863.4,324.8 c 0,1 -0.8,1.8 -1.7,1.8 -0.9,0 -1.7,-0.8 -1.7,-1.8 0,-1 0.8,-1.8 1.7,-1.8 1,0 1.7,0.8 1.7,1.8 z"
         id="path6837"
         style="fill:#808080"
         inkscape:connector-curvature="0" /><path
         class="st0"
         d="m 782.9,348 c 0,1 -0.8,1.8 -1.7,1.8 -0.9,0 -1.7,-0.8 -1.7,-1.8 0,-1 0.8,-1.8 1.7,-1.8 0.9,0 1.7,0.8 1.7,1.8 z"
         id="path6839"
         style="fill:#808080"
         inkscape:connector-curvature="0" /><path
         class="st0"
         d="m 866.3,440.7 c 0,1 -0.8,1.8 -1.7,1.8 -0.9,0 -1.7,-0.8 -1.7,-1.8 0,-1 0.8,-1.8 1.7,-1.8 0.9,0 1.7,0.8 1.7,1.8 z"
         id="path6841"
         style="fill:#808080"
         inkscape:connector-curvature="0" /><path
         class="st0"
         d="m 814.9,285 c 0,1 -0.8,1.8 -1.7,1.8 -0.9,0 -1.7,-0.8 -1.7,-1.8 0,-1 0.8,-1.8 1.7,-1.8 1,0 1.7,0.8 1.7,1.8 z"
         id="path6843"
         style="fill:#808080"
         inkscape:connector-curvature="0" /><path
         class="st0"
         d="m 787.9,453.8 c 0,1 -0.8,1.8 -1.7,1.8 -0.9,0 -1.7,-0.8 -1.7,-1.8 0,-1 0.8,-1.8 1.7,-1.8 0.9,0 1.7,0.8 1.7,1.8 z"
         id="path6845"
         style="fill:#808080"
         inkscape:connector-curvature="0" /><path
         class="st0"
         d="m 682.6,288.8 c 0,1.3 -1,2.3 -2.2,2.3 -1.2,0 -2.2,-1 -2.2,-2.3 0,-1.3 1,-2.3 2.2,-2.3 1.2,0 2.2,1 2.2,2.3 z"
         id="path6847"
         style="fill:#808080"
         inkscape:connector-curvature="0" /><path
         class="st0"
         d="m 737.9,374.4 c 0,1.3 -1,2.3 -2.2,2.3 -1.2,0 -2.2,-1 -2.2,-2.3 0,-1.3 1,-2.3 2.2,-2.3 1.2,0 2.2,1 2.2,2.3 z"
         id="path6849"
         style="fill:#808080"
         inkscape:connector-curvature="0" /><path
         class="st0"
         d="m 701.4,441.3 c 0,1.3 -1,2.3 -2.2,2.3 -1.2,0 -2.2,-1 -2.2,-2.3 0,-1.3 1,-2.3 2.2,-2.3 1.2,0 2.2,1.1 2.2,2.3 z"
         id="path6851"
         style="fill:#808080"
         inkscape:connector-curvature="0" /><path
         class="st0"
         d="m 706.2,437.3 c 0,1 -0.8,1.8 -1.7,1.8 -0.9,0 -1.7,-0.8 -1.7,-1.8 0,-1 0.8,-1.8 1.7,-1.8 0.9,0 1.7,0.8 1.7,1.8 z"
         id="path6853"
         style="fill:#808080"
         inkscape:connector-curvature="0" /><path
         class="st0"
         d="m 790.6,360.1 c 0,1 -0.8,1.8 -1.7,1.8 -0.9,0 -1.7,-0.8 -1.7,-1.8 0,-1 0.8,-1.8 1.7,-1.8 0.9,0 1.7,0.8 1.7,1.8 z"
         id="path6855"
         style="fill:#808080"
         inkscape:connector-curvature="0" /><path
         class="st0"
         d="m 677,375.7 c 0,1 -0.8,1.8 -1.7,1.8 -0.9,0 -1.7,-0.8 -1.7,-1.8 0,-1 0.8,-1.8 1.7,-1.8 0.9,0 1.7,0.8 1.7,1.8 z"
         id="path6857"
         style="fill:#808080"
         inkscape:connector-curvature="0" /><path
         class="st0"
         d="m 596.4,398.8 c 0,1 -0.8,1.8 -1.7,1.8 -0.9,0 -1.7,-0.8 -1.7,-1.8 0,-1 0.8,-1.8 1.7,-1.8 1,0 1.7,0.8 1.7,1.8 z"
         id="path6859"
         style="fill:#808080"
         inkscape:connector-curvature="0" /><path
         class="st0"
         d="m 679.9,491.6 c 0,1 -0.8,1.8 -1.7,1.8 -0.9,0 -1.7,-0.8 -1.7,-1.8 0,-1 0.8,-1.8 1.7,-1.8 0.9,0 1.7,0.8 1.7,1.8 z"
         id="path6861"
         style="fill:#808080"
         inkscape:connector-curvature="0" /><path
         class="st0"
         d="m 628.5,335.9 c 0,1 -0.8,1.8 -1.7,1.8 -0.9,0 -1.7,-0.8 -1.7,-1.8 0,-1 0.8,-1.8 1.7,-1.8 0.9,0 1.7,0.8 1.7,1.8 z"
         id="path6863"
         style="fill:#808080"
         inkscape:connector-curvature="0" /><path
         class="st0"
         d="m 601.5,504.7 c 0,1 -0.8,1.8 -1.7,1.8 -0.9,0 -1.7,-0.8 -1.7,-1.8 0,-1 0.8,-1.8 1.7,-1.8 0.9,0 1.7,0.8 1.7,1.8 z"
         id="path6865"
         style="fill:#808080"
         inkscape:connector-curvature="0" /></g><linearGradient
       id="SVGID_37_"
       gradientUnits="userSpaceOnUse"
       x1="702.36169"
       y1="397.15631"
       x2="849.0376"
       y2="397.15631"><stop
         offset="0"
         style="stop-color:#EF0081"
         id="stop6871" /><stop
         offset="0.138"
         style="stop-color:#F0117A"
         id="stop6873" /><stop
         offset="0.4108"
         style="stop-color:#F23D66"
         id="stop6875" /><stop
         offset="0.7889"
         style="stop-color:#F58348"
         id="stop6877" /><stop
         offset="1"
         style="stop-color:#F7AD35"
         id="stop6879" /></linearGradient><path
       class="st46"
       d="m 702.4,313.8 c 0,-1.5 1.1,-2.5 2.6,-2.5 h 130.2 c 1.5,0 2.9,1 2.9,2.5 V 471.7 L 849,483 H 713.3 c -6.1,0 -10.9,-5.3 -10.9,-11.4 z"
       id="path6882"
       style="fill:#e6e6e6"
       inkscape:connector-curvature="0" /><path
       class="st0"
       d="m 860.3,460.7 v 10.9 c 0,6.1 -5,11.1 -11.1,11.1 -6.1,0 -11.1,-4.8 -11.1,-10.9 l 0.4,-60.8 h 19 c 1.5,0 2.9,0.8 2.9,2.4 z"
       id="path6884"
       style="fill:#808080"
       inkscape:connector-curvature="0" /><path
       class="st47"
       d="M 787.4,373 H 714 c -0.8,0 -1.4,-1.8 -1.4,-4.4 0,-2.6 0.6,-4.4 1.4,-4.4 h 73.4 c 0.8,0 1.4,1.8 1.4,4.4 0,2.6 -0.6,4.4 -1.4,4.4 z"
       id="path6888"
       style="fill:#b3b3b3"
       inkscape:connector-curvature="0" /><path
       class="st47"
       d="m 823.6,431.52963 h -75.3 c -1.2,0 -2,-0.6 -2,-1.4 0,-0.8 0.8,-1.4 2,-1.4 h 75.3 c 1.2,0 2,0.6 2,1.4 0,0.8 -0.8,1.4 -2,1.4 z"
       id="path6894"
       style="fill:#cccccc"
       inkscape:connector-curvature="0" /><path
       class="st47"
       d="m 823.6,440.8 h -75.3 c -1.2,0 -2,-0.6 -2,-1.4 0,-0.8 0.8,-1.4 2,-1.4 h 75.3 c 1.2,0 2,0.6 2,1.4 0,0.8 -0.8,1.4 -2,1.4 z"
       id="path6896"
       style="fill:#cccccc"
       inkscape:connector-curvature="0" /><path
       class="st47"
       d="m 824.27778,450.74815 h -75.3 c -1.2,0 -2,-0.6 -2,-1.4 0,-0.8 0.8,-1.4 2,-1.4 h 75.3 c 1.2,0 2,0.6 2,1.4 0,0.8 -0.8,1.4 -2,1.4 z"
       id="path6898"
       style="fill:#cccccc"
       inkscape:connector-curvature="0" /><linearGradient
       id="SVGID_38_"
       gradientUnits="userSpaceOnUse"
       x1="873.43561"
       y1="274.46841"
       x2="917.69128"
       y2="274.46841"
       gradientTransform="matrix(0.8627,0.1732,0.1732,0.7814,9.4511,-11.9239)"><stop
         offset="0"
         style="stop-color:#EF0081"
         id="stop6900" /><stop
         offset="0.138"
         style="stop-color:#F0117A"
         id="stop6902" /><stop
         offset="0.4108"
         style="stop-color:#F23D66"
         id="stop6904" /><stop
         offset="0.7889"
         style="stop-color:#F58348"
         id="stop6906" /><stop
         offset="1"
         style="stop-color:#F7AD35"
         id="stop6908" /></linearGradient><path
       class="st48"
       d="m 845.6,374.4 3.9,-4.9 c 0.9,-1.1 0.7,-2.7 -0.4,-3.5 l -32,-25.4 c -1.1,-0.9 -2.7,-0.7 -3.5,0.4 l -3.9,4.9 c -0.9,1.1 -0.7,2.7 0.4,3.5 l 32,25.4 c 1.1,0.9 2.7,0.7 3.5,-0.4 z"
       id="path6911"
       style="fill:#808080"
       inkscape:connector-curvature="0" /><linearGradient
       id="SVGID_39_"
       gradientUnits="userSpaceOnUse"
       x1="736.7771"
       y1="321.09869"
       x2="822.9245"
       y2="321.09869"><stop
         offset="0"
         style="stop-color:#EF0081"
         id="stop6913" /><stop
         offset="0.138"
         style="stop-color:#F0117A"
         id="stop6915" /><stop
         offset="0.4108"
         style="stop-color:#F23D66"
         id="stop6917" /><stop
         offset="0.7889"
         style="stop-color:#F58348"
         id="stop6919" /><stop
         offset="1"
         style="stop-color:#F7AD35"
         id="stop6921" /></linearGradient><path
       class="st49"
       d="m 819.9,352 c -1.8,2.3 -4.3,4 -7.3,5 -11.6,3.9 -31,-1.8 -48.6,-15.3 -19.4,-15 -30.1,-34.6 -26.5,-46.8 0.5,-1.7 1.3,-3.2 2.3,-4.6 8.8,-11.4 33.8,-6.7 55.9,10.3 22.1,17 32.9,40 24.2,51.4 z"
       id="path6924"
       style="fill:#999999"
       inkscape:connector-curvature="0" /><linearGradient
       id="SVGID_40_"
       gradientUnits="userSpaceOnUse"
       x1="736.7771"
       y1="325.90359"
       x2="813.31262"
       y2="325.90359"><stop
         offset="0"
         style="stop-color:#EF0081"
         id="stop6926" /><stop
         offset="0.138"
         style="stop-color:#F0117A"
         id="stop6928" /><stop
         offset="0.4108"
         style="stop-color:#F23D66"
         id="stop6930" /><stop
         offset="0.7889"
         style="stop-color:#F58348"
         id="stop6932" /><stop
         offset="1"
         style="stop-color:#F7AD35"
         id="stop6934" /></linearGradient><path
       class="st50"
       d="m 812.6,357 c -11.6,3.9 -31,-1.8 -48.6,-15.3 -19.4,-15 -30.1,-34.6 -26.5,-46.8 11.6,-3.9 31.1,1.7 48.6,15.3 19.4,14.9 30.1,34.5 26.5,46.8 z"
       id="path6937"
       style="fill:#b3b3b3"
       inkscape:connector-curvature="0" /><path
       class="st47"
       d="m 802.5,350.3 c -8.5,2.9 -22.6,-1.3 -35.4,-11.2 -14.2,-10.9 -22,-25.2 -19.3,-34.1 8.5,-2.9 22.6,1.3 35.4,11.2 14.2,10.9 22,25.2 19.3,34.1 z"
       id="path6939"
       inkscape:connector-curvature="0"
       style="fill:#ffffff" /><path
       inkscape:connector-curvature="0"
       class="st47"
       d="m 790.60741,383.06111 h -75.3 c -1.2,0 -2,-0.6 -2,-1.4 0,-0.8 0.8,-1.4 2,-1.4 h 75.3 c 1.2,0 2,0.6 2,1.4 0,0.8 -0.8,1.4 -2,1.4 z"
       id="path6896-6"
       style="fill:#cccccc" /><path
       class="st47"
       d="m 791.28519,393.00926 h -75.3 c -1.2,0 -2,-0.6 -2,-1.4 0,-0.8 0.8,-1.4 2,-1.4 h 75.3 c 1.2,0 2,0.6 2,1.4 0,0.8 -0.8,1.4 -2,1.4 z"
       id="path6898-7"
       style="fill:#cccccc"
       inkscape:connector-curvature="0" /></g><linearGradient
     id="SVGID_41_"
     gradientUnits="userSpaceOnUse"
     x1="305.92841"
     y1="679.97321"
     x2="513.88812"
     y2="679.97321"
     gradientTransform="matrix(0.6973,-0.5367,0.703,0.3827,-51.3355,779.3688)"><stop
       offset="0"
       style="stop-color:#EF0081"
       id="stop6949" /><stop
       offset="0.138"
       style="stop-color:#F0117A"
       id="stop6951" /><stop
       offset="0.4108"
       style="stop-color:#F23D66"
       id="stop6953" /><stop
       offset="0.7889"
       style="stop-color:#F58348"
       id="stop6955" /><stop
       offset="1"
       style="stop-color:#F7AD35"
       id="stop6957" /></linearGradient><linearGradient
     id="SVGID_42_"
     gradientUnits="userSpaceOnUse"
     x1="567.33868"
     y1="-63.0471"
     x2="567.33868"
     y2="-89.0998"
     gradientTransform="matrix(1,0,0,-1,0,-554.0998)"><stop
       offset="0"
       style="stop-color:#EF0081"
       id="stop6968" /><stop
       offset="0.138"
       style="stop-color:#F0117A"
       id="stop6970" /><stop
       offset="0.4108"
       style="stop-color:#F23D66"
       id="stop6972" /><stop
       offset="0.7889"
       style="stop-color:#F58348"
       id="stop6974" /><stop
       offset="1"
       style="stop-color:#F7AD35"
       id="stop6976" /></linearGradient><linearGradient
     id="SVGID_47_"
     gradientUnits="userSpaceOnUse"
     x1="185.71159"
     y1="-55.343899"
     x2="185.71159"
     y2="-82.0998"
     gradientTransform="matrix(1,0,0,-1,0,45.9002)"><stop
       offset="0"
       style="stop-color:#EF0081"
       id="stop7041" /><stop
       offset="0.138"
       style="stop-color:#F0117A"
       id="stop7043" /><stop
       offset="0.4108"
       style="stop-color:#F23D66"
       id="stop7045" /><stop
       offset="0.7889"
       style="stop-color:#F58348"
       id="stop7047" /><stop
       offset="1"
       style="stop-color:#F7AD35"
       id="stop7049" /></linearGradient><linearGradient
     id="SVGID_50_"
     gradientUnits="userSpaceOnUse"
     x1="359.71161"
     y1="-177.89079"
     x2="359.71161"
     y2="-204.09979"
     gradientTransform="matrix(1,0,0,-1,0,45.9002)"><stop
       offset="0"
       style="stop-color:#EF0081"
       id="stop7094" /><stop
       offset="0.138"
       style="stop-color:#F0117A"
       id="stop7096" /><stop
       offset="0.4108"
       style="stop-color:#F23D66"
       id="stop7098" /><stop
       offset="0.7889"
       style="stop-color:#F58348"
       id="stop7100" /><stop
       offset="1"
       style="stop-color:#F7AD35"
       id="stop7102" /></linearGradient></svg>