<?xml version="1.0" encoding="UTF-8" standalone="no"?>
<!-- Generator: Adobe Illustrator 22.0.1, SVG Export Plug-In . SVG Version: 6.00 Build 0)  -->

<svg
   xmlns:dc="http://purl.org/dc/elements/1.1/"
   xmlns:cc="http://creativecommons.org/ns#"
   xmlns:rdf="http://www.w3.org/1999/02/22-rdf-syntax-ns#"
   xmlns:svg="http://www.w3.org/2000/svg"
   xmlns="http://www.w3.org/2000/svg"
   xmlns:sodipodi="http://sodipodi.sourceforge.net/DTD/sodipodi-0.dtd"
   xmlns:inkscape="http://www.inkscape.org/namespaces/inkscape"
   version="1.1"
   id="Layer_1"
   x="0px"
   y="0px"
   viewBox="0 0 500 400"
   xml:space="preserve"
   sodipodi:docname="Results.svg"
   inkscape:version="0.92.2 5c3e80d, 2017-08-06"
   width="500"
   height="400"><metadata
     id="metadata7133"><rdf:RDF><cc:Work
         rdf:about=""><dc:format>image/svg+xml</dc:format><dc:type
           rdf:resource="http://purl.org/dc/dcmitype/StillImage" /><dc:title></dc:title></cc:Work></rdf:RDF></metadata><defs
     id="defs7131" /><sodipodi:namedview
     pagecolor="#ffffff"
     bordercolor="#666666"
     borderopacity="1"
     objecttolerance="10"
     gridtolerance="10"
     guidetolerance="10"
     inkscape:pageopacity="0"
     inkscape:pageshadow="2"
     inkscape:window-width="1440"
     inkscape:window-height="789"
     id="namedview7129"
     showgrid="false"
     showguides="false"
     inkscape:lockguides="true"
     inkscape:zoom="0.470226"
     inkscape:cx="558.69126"
     inkscape:cy="438.19296"
     inkscape:window-x="0"
     inkscape:window-y="1"
     inkscape:window-maximized="1"
     inkscape:current-layer="Layer_1"><inkscape:grid
       type="xygrid"
       id="grid1268" /></sodipodi:namedview><style
     type="text/css"
     id="style6251">
	.st0{fill:#3D4DAC;}
	.st1{fill:url(#SVGID_1_);}
	.st2{fill:url(#SVGID_2_);}
	.st3{fill:url(#SVGID_3_);}
	.st4{fill:url(#SVGID_4_);}
	.st5{fill:url(#SVGID_5_);}
	.st6{fill:url(#SVGID_6_);}
	.st7{fill:url(#SVGID_7_);}
	.st8{fill:url(#SVGID_8_);}
	.st9{fill:url(#SVGID_9_);}
	.st10{fill:url(#SVGID_10_);}
	.st11{fill:url(#SVGID_11_);}
	.st12{fill:url(#SVGID_12_);}
	.st13{fill:url(#SVGID_13_);}
	.st14{fill:url(#SVGID_14_);}
	.st15{fill:url(#SVGID_15_);}
	.st16{fill:url(#SVGID_16_);}
	.st17{fill:url(#SVGID_17_);}
	.st18{fill:url(#SVGID_18_);}
	.st19{fill:url(#SVGID_19_);}
	.st20{fill:url(#SVGID_20_);}
	.st21{fill:url(#SVGID_21_);}
	.st22{fill:url(#SVGID_22_);}
	.st23{fill:url(#SVGID_23_);}
	.st24{fill:url(#SVGID_24_);}
	.st25{fill:url(#SVGID_25_);}
	.st26{fill:url(#SVGID_26_);}
	.st27{fill:url(#SVGID_27_);}
	.st28{fill:url(#SVGID_28_);}
	.st29{fill:url(#SVGID_29_);}
	.st30{fill:url(#SVGID_30_);}
	.st31{fill:url(#SVGID_31_);}
	.st32{fill:url(#SVGID_32_);}
	.st33{fill:url(#SVGID_33_);}
	.st34{fill:url(#SVGID_34_);}
	.st35{fill:url(#SVGID_35_);}
	.st36{fill:url(#SVGID_36_);}
	.st37{fill:#D7591E;}
	.st38{fill:#444444;}
	.st39{font-family:'Circular-Black';}
	.st40{font-size:48.0499px;}
	.st41{fill:#282828;}
	.st42{font-family:'Helvetica-Light';}
	.st43{font-size:19.5199px;}
	.st44{font-size:20.2043px;}
	.st45{font-size:19.1566px;}
	.st46{fill:url(#SVGID_37_);}
	.st47{fill:#FFFFFF;}
	.st48{fill:url(#SVGID_38_);}
	.st49{fill:url(#SVGID_39_);}
	.st50{fill:url(#SVGID_40_);}
	.st51{fill:url(#SVGID_41_);}
	.st52{fill:url(#SVGID_42_);}
	.st53{fill:url(#SVGID_43_);}
	.st54{fill:url(#SVGID_44_);}
	.st55{fill:url(#SVGID_45_);}
	.st56{fill:url(#SVGID_46_);}
	.st57{fill:url(#SVGID_47_);}
	.st58{fill:url(#SVGID_48_);}
	.st59{fill:url(#SVGID_49_);}
	.st60{fill:url(#SVGID_50_);}
	.st61{fill:#3A00C9;}
	.st62{fill:url(#SVGID_51_);}
</style><g
     id="g6335"
     style="fill:#999999"
     transform="matrix(1.0945172,0,0,1.0945172,-580.14657,-632.75965)"><path
       class="st0"
       d="m 849.1,619.1 c 0,1.4 -1.1,2.5 -2.4,2.5 -1.3,0 -2.4,-1.1 -2.4,-2.5 0,-1.4 1.1,-2.5 2.4,-2.5 1.4,0 2.4,1.1 2.4,2.5 z"
       id="path6295"
       style="fill:#999999"
       inkscape:connector-curvature="0" /><path
       class="st0"
       d="m 907.4,709.4 c 0,1.4 -1.1,2.5 -2.4,2.5 -1.3,0 -2.4,-1.1 -2.4,-2.5 0,-1.4 1.1,-2.5 2.4,-2.5 1.4,0 2.4,1.1 2.4,2.5 z"
       id="path6297"
       style="fill:#999999"
       inkscape:connector-curvature="0" /><path
       class="st0"
       d="m 868.9,779.9 c 0,1.4 -1.1,2.5 -2.4,2.5 -1.3,0 -2.4,-1.1 -2.4,-2.5 0,-1.4 1.1,-2.5 2.4,-2.5 1.4,0.1 2.4,1.2 2.4,2.5 z"
       id="path6299"
       style="fill:#999999"
       inkscape:connector-curvature="0" /><path
       class="st0"
       d="m 874,775.7 c 0,1 -0.8,1.9 -1.8,1.9 -1,0 -1.8,-0.8 -1.8,-1.9 0,-1 0.8,-1.9 1.8,-1.9 1,0 1.8,0.8 1.8,1.9 z"
       id="path6301"
       style="fill:#999999"
       inkscape:connector-curvature="0" /><path
       class="st0"
       d="m 963,694.2 c 0,1 -0.8,1.9 -1.8,1.9 -1,0 -1.8,-0.8 -1.8,-1.9 0,-1 0.8,-1.9 1.8,-1.9 1,0.1 1.8,0.9 1.8,1.9 z"
       id="path6303"
       style="fill:#999999"
       inkscape:connector-curvature="0" /><path
       class="st0"
       d="m 843.2,710.7 c 0,1 -0.8,1.9 -1.8,1.9 -1,0 -1.8,-0.8 -1.8,-1.9 0,-1 0.8,-1.9 1.8,-1.9 1,0 1.8,0.8 1.8,1.9 z"
       id="path6305"
       style="fill:#999999"
       inkscape:connector-curvature="0" /><path
       class="st0"
       d="m 758.2,735.1 c 0,1 -0.8,1.9 -1.8,1.9 -1,0 -1.8,-0.8 -1.8,-1.9 0,-1 0.8,-1.9 1.8,-1.9 1,0 1.8,0.9 1.8,1.9 z"
       id="path6307"
       style="fill:#999999"
       inkscape:connector-curvature="0" /><path
       class="st0"
       d="m 846.2,832.9 c 0,1 -0.8,1.9 -1.8,1.9 -1,0 -1.8,-0.8 -1.8,-1.9 0,-1 0.8,-1.9 1.8,-1.9 1,0 1.8,0.9 1.8,1.9 z"
       id="path6309"
       style="fill:#999999"
       inkscape:connector-curvature="0" /><path
       class="st0"
       d="m 792.1,668.7 c 0,1 -0.8,1.9 -1.8,1.9 -1,0 -1.8,-0.8 -1.8,-1.9 0,-1.1 0.8,-1.9 1.8,-1.9 1,0 1.8,0.9 1.8,1.9 z"
       id="path6311"
       style="fill:#999999"
       inkscape:connector-curvature="0" /><path
       class="st0"
       d="m 763.5,846.7 c 0,1 -0.8,1.9 -1.8,1.9 -1,0 -1.8,-0.8 -1.8,-1.9 0,-1.1 0.8,-1.9 1.8,-1.9 1,0 1.8,0.9 1.8,1.9 z"
       id="path6313"
       style="fill:#999999"
       inkscape:connector-curvature="0" /><path
       class="st0"
       d="m 652.5,672.7 c 0,1.4 -1.1,2.5 -2.4,2.5 -1.3,0 -2.4,-1.1 -2.4,-2.5 0,-1.4 1.1,-2.5 2.4,-2.5 1.4,0.1 2.4,1.2 2.4,2.5 z"
       id="path6315"
       style="fill:#999999"
       inkscape:connector-curvature="0" /><path
       class="st0"
       d="m 710.8,763 c 0,1.4 -1.1,2.5 -2.4,2.5 -1.3,0 -2.4,-1.1 -2.4,-2.5 0,-1.4 1.1,-2.5 2.4,-2.5 1.3,0.1 2.4,1.2 2.4,2.5 z"
       id="path6317"
       style="fill:#999999"
       inkscape:connector-curvature="0" /><path
       class="st0"
       d="m 672.3,833.6 c 0,1.4 -1.1,2.5 -2.4,2.5 -1.3,0 -2.4,-1.1 -2.4,-2.5 0,-1.4 1.1,-2.5 2.4,-2.5 1.3,0 2.4,1.1 2.4,2.5 z"
       id="path6319"
       style="fill:#999999"
       inkscape:connector-curvature="0" /><path
       class="st0"
       d="m 677.4,829.4 c 0,1 -0.8,1.9 -1.8,1.9 -1,0 -1.8,-0.8 -1.8,-1.9 0,-1.1 0.8,-1.9 1.8,-1.9 1,0 1.8,0.8 1.8,1.9 z"
       id="path6321"
       style="fill:#999999"
       inkscape:connector-curvature="0" /><path
       class="st0"
       d="m 766.4,747.9 c 0,1 -0.8,1.9 -1.8,1.9 -1,0 -1.8,-0.8 -1.8,-1.9 0,-1 0.8,-1.9 1.8,-1.9 1,0 1.8,0.9 1.8,1.9 z"
       id="path6323"
       style="fill:#999999"
       inkscape:connector-curvature="0" /><path
       class="st0"
       d="m 646.6,764.3 c 0,1 -0.8,1.9 -1.8,1.9 -1,0 -1.8,-0.8 -1.8,-1.9 0,-1 0.8,-1.9 1.8,-1.9 1,0 1.8,0.9 1.8,1.9 z"
       id="path6325"
       style="fill:#999999"
       inkscape:connector-curvature="0" /><path
       class="st0"
       d="m 561.6,788.8 c 0,1 -0.8,1.9 -1.8,1.9 -1,0 -1.8,-0.8 -1.8,-1.9 0,-1 0.8,-1.9 1.8,-1.9 1,0 1.8,0.8 1.8,1.9 z"
       id="path6327"
       style="fill:#999999"
       inkscape:connector-curvature="0" /><path
       class="st0"
       d="m 649.6,886.6 c 0,1 -0.8,1.9 -1.8,1.9 -1,0 -1.8,-0.8 -1.8,-1.9 0,-1 0.8,-1.9 1.8,-1.9 1,0 1.8,0.8 1.8,1.9 z"
       id="path6329"
       style="fill:#999999"
       inkscape:connector-curvature="0" /><path
       class="st0"
       d="m 595.5,722.4 c 0,1 -0.8,1.9 -1.8,1.9 -1,0 -1.8,-0.8 -1.8,-1.9 0,-1 0.8,-1.9 1.8,-1.9 0.9,0 1.8,0.9 1.8,1.9 z"
       id="path6331"
       style="fill:#999999"
       inkscape:connector-curvature="0" /><path
       class="st0"
       d="m 566.9,900.4 c 0,1 -0.8,1.9 -1.8,1.9 -1,0 -1.8,-0.8 -1.8,-1.9 0,-1 0.8,-1.9 1.8,-1.9 1,0 1.8,0.8 1.8,1.9 z"
       id="path6333"
       style="fill:#999999"
       inkscape:connector-curvature="0" /></g><g
     id="g6947"
     style="fill:#808080"
     transform="matrix(1.0945172,0,0,1.0945172,-580.14657,-632.75965)"><g
       id="g6945"
       style="fill:#808080"><path
         class="st0"
         d="m 741.7,802.5 c 2.8,-14.2 1.9,-37.5 -19,-67.1 -11.1,-15.9 -14.7,-30.9 -11,-44.7 6.2,-23.9 32.2,-36.7 32.4,-36.8 0,0 0,0 0.3,0 21.4,13 65.4,43.6 106.8,96.5 -2.6,-0.9 -5.2,-1.3 -8.1,-1 -10.8,0.9 -19,10.5 -18.1,21.5 1,11 10.5,19 21.5,18.1 10.5,-0.9 18.5,-9.9 17.9,-20.4 8.5,12.1 16.8,25.3 24.5,39.2 -2.7,2.2 -3.7,6.3 -2,9.3 l 10.6,19.9 c 1,1.9 2.6,3.2 4.3,3.6 0.9,0.2 2,0.4 2.9,0.3 0.9,-0.1 2,-0.5 2.8,-0.8 l 2.2,-1.3 c 3.8,-2 5.1,-6.4 3.1,-10.3 l -10,-19.9 c -1,-1.9 -2.6,-3.2 -4.3,-3.6 -1.5,-0.4 -2.9,-0.3 -4.3,-0.2 C 829.8,688.5 734.5,641.5 733.6,641 c -1.5,-0.7 -3.1,0 -3.9,1.2 -0.7,1.5 0,3.1 1.2,3.9 0.3,0 3,1.5 7.5,4.2 -7.6,4.4 -26.7,17.2 -32.5,38.8 -4.1,15.5 0,32.2 11.7,49.4 36.8,53 9.2,83 7.9,84.6 l -1.7,-5.8 c -0.4,-1.4 -1.9,-2.4 -3.6,-2 -1.4,0.4 -2.4,1.9 -2,3.6 m 20.9,6.6 m 107,-42.4"
         id="path6943"
         style="fill:#808080"
         inkscape:connector-curvature="0" /></g></g><linearGradient
     id="SVGID_41_"
     gradientUnits="userSpaceOnUse"
     x1="305.92841"
     y1="679.97321"
     x2="513.88812"
     y2="679.97321"
     gradientTransform="matrix(0.6973,-0.5367,0.703,0.3827,-51.3355,779.3688)"><stop
       offset="0"
       style="stop-color:#EF0081"
       id="stop6949" /><stop
       offset="0.138"
       style="stop-color:#F0117A"
       id="stop6951" /><stop
       offset="0.4108"
       style="stop-color:#F23D66"
       id="stop6953" /><stop
       offset="0.7889"
       style="stop-color:#F58348"
       id="stop6955" /><stop
       offset="1"
       style="stop-color:#F7AD35"
       id="stop6957" /></linearGradient><path
     class="st51"
     d="m 325.34751,251.82915 -3.94026,-21.23364 c -1.09452,-5.69149 -6.5671,-9.5223 -12.36804,-8.42778 L 82.474146,264.30664 c -5.69149,1.09452 -9.5223,6.5671 -8.427783,12.36805 l 3.940262,21.23363 c 1.094517,5.69149 6.567103,9.5223 12.368044,8.42778 L 316.91973,264.19719 c 5.69149,-1.09452 9.5223,-6.5671 8.42778,-12.36804 z"
     id="path6960"
     style="fill:#e6e6e6;stroke-width:1.09451723"
     inkscape:connector-curvature="0" /><g
     id="g6964"
     style="fill:#999999"
     transform="matrix(1.0945172,0,0,1.0945172,-580.14657,-632.75965)"><path
       class="st47"
       d="m 809.1,811.3 -6.4,-4.4 c 1.1,-1.9 1.6,-4.3 1.2,-6.6 -1,-5.2 -6,-8.7 -11.2,-7.7 -5.2,1 -8.7,6 -7.7,11.2 1,5.2 6,8.7 11.2,7.7 2.4,-0.4 4.4,-1.7 5.8,-3.5 l 6.4,4.4 c 0.2,0.1 0.3,0.1 0.5,0.1 0.2,0 0.3,-0.1 0.4,-0.3 0.1,-0.3 0.1,-0.7 -0.2,-0.9 z m -22.9,-7.8 c -0.8,-4.5 2.1,-8.8 6.6,-9.7 4.5,-0.8 8.8,2.1 9.7,6.6 0.8,4.5 -2.1,8.8 -6.6,9.7 -4.5,0.9 -8.9,-2.1 -9.7,-6.6 z"
       id="path6962"
       style="fill:#999999"
       inkscape:connector-curvature="0" /></g><path
     class="st47"
     d="M 238.74297,262.93344 101.88311,288.1359 c -1.53559,0.31272 -2.939414,-1.56238 -3.456508,-4.523 -0.517093,-2.96062 0.161901,-5.14284 1.697498,-5.45556 l 136.85986,-25.20246 c 1.53559,-0.31272 2.93942,1.56238 3.45651,4.523 0.51598,3.07007 -0.16302,5.2523 -1.6975,5.45556 z"
     id="path6966"
     style="fill:#b3b3b3;stroke-width:1.09451723"
     inkscape:connector-curvature="0" /><linearGradient
     id="SVGID_42_"
     gradientUnits="userSpaceOnUse"
     x1="567.33868"
     y1="-63.0471"
     x2="567.33868"
     y2="-89.0998"
     gradientTransform="matrix(1,0,0,-1,0,-554.0998)"><stop
       offset="0"
       style="stop-color:#EF0081"
       id="stop6968" /><stop
       offset="0.138"
       style="stop-color:#F0117A"
       id="stop6970" /><stop
       offset="0.4108"
       style="stop-color:#F23D66"
       id="stop6972" /><stop
       offset="0.7889"
       style="stop-color:#F58348"
       id="stop6974" /><stop
       offset="1"
       style="stop-color:#F7AD35"
       id="stop6976" /></linearGradient><linearGradient
     id="SVGID_47_"
     gradientUnits="userSpaceOnUse"
     x1="185.71159"
     y1="-55.343899"
     x2="185.71159"
     y2="-82.0998"
     gradientTransform="matrix(1,0,0,-1,0,45.9002)"><stop
       offset="0"
       style="stop-color:#EF0081"
       id="stop7041" /><stop
       offset="0.138"
       style="stop-color:#F0117A"
       id="stop7043" /><stop
       offset="0.4108"
       style="stop-color:#F23D66"
       id="stop7045" /><stop
       offset="0.7889"
       style="stop-color:#F58348"
       id="stop7047" /><stop
       offset="1"
       style="stop-color:#F7AD35"
       id="stop7049" /></linearGradient><g
     id="g7092"
     transform="matrix(1.0945172,0,0,1.0945172,-580.14657,-632.75965)"><circle
       class="st47"
       cx="844.5"
       cy="769.5"
       r="9.5"
       id="circle7090"
       style="fill:#ffffff" /></g><linearGradient
     id="SVGID_50_"
     gradientUnits="userSpaceOnUse"
     x1="359.71161"
     y1="-177.89079"
     x2="359.71161"
     y2="-204.09979"
     gradientTransform="matrix(1,0,0,-1,0,45.9002)"><stop
       offset="0"
       style="stop-color:#EF0081"
       id="stop7094" /><stop
       offset="0.138"
       style="stop-color:#F0117A"
       id="stop7096" /><stop
       offset="0.4108"
       style="stop-color:#F23D66"
       id="stop7098" /><stop
       offset="0.7889"
       style="stop-color:#F58348"
       id="stop7100" /><stop
       offset="1"
       style="stop-color:#F7AD35"
       id="stop7102" /></linearGradient></svg>